<svg xmlns="http://www.w3.org/2000/svg" xmlns:xlink="http://www.w3.org/1999/xlink" width="500" zoomAndPan="magnify" viewBox="0 0 375 374.999991" height="500" preserveAspectRatio="xMidYMid meet" version="1.0"><defs><g/><clipPath id="7fd157b98d"><path d="M 189 171 L 285 171 L 285 201.410156 L 189 201.410156 Z M 189 171 " clip-rule="nonzero"/></clipPath><clipPath id="6ed031fa5b"><path d="M 90.003906 171 L 186 171 L 186 201.410156 L 90.003906 201.410156 Z M 90.003906 171 " clip-rule="nonzero"/></clipPath><clipPath id="d0c105df67"><path d="M 137 92.660156 L 237 92.660156 L 237 155 L 137 155 Z M 137 92.660156 " clip-rule="nonzero"/></clipPath></defs><rect x="-37.5" width="450" fill="#ffffff" y="-37.499999" height="449.999989" fill-opacity="1"/><rect x="-37.5" width="450" fill="#ffffff" y="-37.499999" height="449.999989" fill-opacity="1"/><rect x="-37.5" width="450" fill="#000000" y="-37.499999" height="449.999989" fill-opacity="1"/><g clip-path="url(#7fd157b98d)"><path fill="#d80909" d="M 197.347656 190.667969 C 230.375 174.453125 260.339844 171.625 275.207031 171.371094 C 280.59375 171.277344 284.980469 175.667969 284.875 181.042969 C 284.777344 186.078125 280.757812 190.160156 275.714844 190.339844 C 232.375 191.871094 189.703125 201.402344 189.703125 201.402344 C 189.539062 196.5 189.703125 195.328125 189.703125 195.328125 C 190.449219 193.230469 197.347656 190.667969 197.347656 190.667969 " fill-opacity="1" fill-rule="nonzero"/></g><path fill="#d80909" d="M 194.050781 180.152344 C 213.8125 163.714844 233.695312 156.867188 243.753906 154.25 C 247.394531 153.304688 251.097656 155.566406 251.914062 159.234375 C 252.675781 162.667969 250.621094 166.101562 247.226562 167.050781 C 218.039062 175.214844 190.632812 188.703125 190.632812 188.703125 C 189.714844 185.398438 189.628906 184.574219 189.628906 184.574219 C 189.789062 183.027344 194.050781 180.152344 194.050781 180.152344 " fill-opacity="1" fill-rule="nonzero"/><g clip-path="url(#6ed031fa5b)"><path fill="#4782b4" d="M 177.660156 190.667969 C 144.628906 174.453125 114.664062 171.625 99.796875 171.371094 C 94.410156 171.277344 90.023438 175.667969 90.128906 181.042969 C 90.226562 186.078125 94.246094 190.160156 99.289062 190.339844 C 142.632812 191.871094 185.300781 201.402344 185.300781 201.402344 C 185.464844 196.5 185.300781 195.328125 185.300781 195.328125 C 184.558594 193.230469 177.660156 190.667969 177.660156 190.667969 " fill-opacity="1" fill-rule="nonzero"/></g><path fill="#4782b4" d="M 180.953125 180.152344 C 161.195312 163.714844 141.308594 156.867188 131.253906 154.25 C 127.609375 153.304688 123.90625 155.566406 123.089844 159.234375 C 122.328125 162.667969 124.382812 166.101562 127.777344 167.050781 C 156.964844 175.214844 184.371094 188.703125 184.371094 188.703125 C 185.289062 185.398438 185.375 184.574219 185.375 184.574219 C 185.214844 183.027344 180.953125 180.152344 180.953125 180.152344 " fill-opacity="1" fill-rule="nonzero"/><g clip-path="url(#d0c105df67)"><path fill="#d80909" d="M 234.777344 125.609375 L 210.8125 137.878906 L 210.867188 151.644531 L 210.707031 151.664062 L 210.707031 151.980469 L 208.507812 151.964844 L 187.59375 154.820312 L 164.28125 151.980469 L 164.277344 151.644531 L 164.121094 151.644531 L 164.179688 137.5625 L 140.347656 124.925781 C 140.292969 124.898438 140.242188 124.867188 140.195312 124.835938 L 140.144531 131.789062 C 140.957031 131.988281 141.539062 132.507812 141.535156 133.117188 L 141.433594 147.214844 C 141.425781 147.988281 140.472656 148.609375 139.300781 148.601562 C 138.128906 148.59375 137.183594 147.957031 137.1875 147.183594 L 137.289062 133.089844 C 137.296875 132.480469 137.882812 131.964844 138.703125 131.777344 L 138.765625 122.722656 C 138.578125 121.550781 139.070312 120.28125 140.25 119.597656 L 152.117188 112.753906 L 163.363281 106.273438 L 170.996094 101.867188 L 182.242188 95.382812 L 186.25 93.070312 C 186.730469 92.792969 187.265625 92.660156 187.800781 92.664062 C 188.335938 92.667969 188.867188 92.808594 189.339844 93.09375 L 189.875 93.410156 L 201.121094 100.117188 L 208.753906 104.667969 L 220 111.371094 L 234.949219 120.285156 C 237.007812 121.511719 236.910156 124.519531 234.777344 125.609375 " fill-opacity="1" fill-rule="nonzero"/></g><path fill="#f4f5f7" d="M 187.59375 154.820312 L 187.835938 121.886719 L 210.855469 130.261719 L 210.695312 152.007812 L 187.59375 154.820312 " fill-opacity="1" fill-rule="nonzero"/><g fill="#f4f5f7" fill-opacity="1"><g transform="translate(155.791621, 233.911698)"><g><path d="M 16.421875 -6.359375 C 16.421875 -4.328125 15.6875 -2.703125 14.21875 -1.484375 C 12.75 -0.273438 10.664062 0.328125 7.96875 0.328125 C 5.550781 0.328125 3.390625 -0.132812 1.484375 -1.0625 L 1.484375 -5.59375 C 2.578125 -5.125 3.707031 -4.691406 4.875 -4.296875 C 6.039062 -3.898438 7.203125 -3.703125 8.359375 -3.703125 C 9.554688 -3.703125 10.40625 -3.929688 10.90625 -4.390625 C 11.414062 -4.847656 11.671875 -5.429688 11.671875 -6.140625 C 11.671875 -6.710938 11.472656 -7.203125 11.078125 -7.609375 C 10.679688 -8.023438 10.148438 -8.40625 9.484375 -8.75 C 8.816406 -9.101562 8.054688 -9.488281 7.203125 -9.90625 C 6.660156 -10.15625 6.078125 -10.457031 5.453125 -10.8125 C 4.835938 -11.164062 4.242188 -11.601562 3.671875 -12.125 C 3.109375 -12.65625 2.644531 -13.296875 2.28125 -14.046875 C 1.914062 -14.796875 1.734375 -15.695312 1.734375 -16.75 C 1.734375 -18.800781 2.425781 -20.398438 3.8125 -21.546875 C 5.207031 -22.691406 7.109375 -23.265625 9.515625 -23.265625 C 10.710938 -23.265625 11.847656 -23.125 12.921875 -22.84375 C 13.992188 -22.570312 15.128906 -22.175781 16.328125 -21.65625 L 14.75 -17.875 C 13.695312 -18.300781 12.753906 -18.628906 11.921875 -18.859375 C 11.085938 -19.097656 10.234375 -19.21875 9.359375 -19.21875 C 8.429688 -19.21875 7.722656 -19.003906 7.234375 -18.578125 C 6.742188 -18.148438 6.5 -17.59375 6.5 -16.90625 C 6.5 -16.09375 6.859375 -15.445312 7.578125 -14.96875 C 8.304688 -14.5 9.390625 -13.921875 10.828125 -13.234375 C 12.003906 -12.679688 13.003906 -12.101562 13.828125 -11.5 C 14.660156 -10.90625 15.300781 -10.195312 15.75 -9.375 C 16.195312 -8.5625 16.421875 -7.554688 16.421875 -6.359375 Z M 16.421875 -6.359375 "/></g></g></g><g fill="#f4f5f7" fill-opacity="1"><g transform="translate(176.743105, 233.911698)"><g><path d="M 9.578125 -22.953125 C 12.703125 -22.953125 15.007812 -22.382812 16.5 -21.25 C 17.988281 -20.113281 18.734375 -18.390625 18.734375 -16.078125 C 18.734375 -15.023438 18.535156 -14.109375 18.140625 -13.328125 C 17.742188 -12.546875 17.21875 -11.878906 16.5625 -11.328125 C 15.914062 -10.785156 15.21875 -10.34375 14.46875 -10 L 21.21875 0 L 15.8125 0 L 10.34375 -8.8125 L 7.75 -8.8125 L 7.75 0 L 2.890625 0 L 2.890625 -22.953125 Z M 9.21875 -18.96875 L 7.75 -18.96875 L 7.75 -12.765625 L 9.328125 -12.765625 C 10.929688 -12.765625 12.082031 -13.03125 12.78125 -13.5625 C 13.476562 -14.09375 13.828125 -14.882812 13.828125 -15.9375 C 13.828125 -17.03125 13.453125 -17.804688 12.703125 -18.265625 C 11.953125 -18.734375 10.789062 -18.96875 9.21875 -18.96875 Z M 9.21875 -18.96875 "/></g></g></g><g fill="#f4f5f7" fill-opacity="1"><g transform="translate(201.197065, 233.911698)"><g><path d="M 16.109375 0 L 2.890625 0 L 2.890625 -22.953125 L 16.109375 -22.953125 L 16.109375 -18.96875 L 7.75 -18.96875 L 7.75 -13.921875 L 15.53125 -13.921875 L 15.53125 -9.9375 L 7.75 -9.9375 L 7.75 -4.015625 L 16.109375 -4.015625 Z M 16.109375 0 "/></g></g></g></svg>