<svg xmlns="http://www.w3.org/2000/svg" xmlns:xlink="http://www.w3.org/1999/xlink" width="500" zoomAndPan="magnify" viewBox="0 0 375 374.999991" height="500" preserveAspectRatio="xMidYMid meet" version="1.0"><defs><g/><clipPath id="e021df4682"><path d="M 191 162 L 350.792969 162 L 350.792969 213.253906 L 191 213.253906 Z M 191 162 " clip-rule="nonzero"/></clipPath><clipPath id="c85e74e231"><path d="M 24.542969 162 L 185 162 L 185 213.253906 L 24.542969 213.253906 Z M 24.542969 162 " clip-rule="nonzero"/></clipPath><clipPath id="8d953ef194"><path d="M 103 31.003906 L 270 31.003906 L 270 136 L 103 136 Z M 103 31.003906 " clip-rule="nonzero"/></clipPath></defs><rect x="-37.5" width="450" fill="#ffffff" y="-37.499999" height="449.999989" fill-opacity="1"/><rect x="-37.5" width="450" fill="#ffffff" y="-37.499999" height="449.999989" fill-opacity="1"/><rect x="-37.5" width="450" fill="#000000" y="-37.499999" height="449.999989" fill-opacity="1"/><g clip-path="url(#e021df4682)"><path fill="#d80909" d="M 204.136719 195.253906 C 259.394531 168.082031 309.535156 163.339844 334.410156 162.917969 C 343.425781 162.761719 350.761719 170.117188 350.589844 179.125 C 350.421875 187.5625 343.695312 194.40625 335.261719 194.703125 C 262.742188 197.269531 191.347656 213.246094 191.347656 213.246094 C 191.078125 205.03125 191.347656 203.066406 191.347656 203.066406 C 192.59375 199.546875 204.136719 195.253906 204.136719 195.253906 " fill-opacity="1" fill-rule="nonzero"/></g><path fill="#d80909" d="M 198.625 177.636719 C 231.683594 150.085938 264.953125 138.613281 281.78125 134.226562 C 287.875 132.640625 294.070312 136.425781 295.4375 142.574219 C 296.710938 148.332031 293.273438 154.089844 287.59375 155.679688 C 238.761719 169.355469 192.90625 191.960938 192.90625 191.960938 C 191.367188 186.421875 191.226562 185.046875 191.226562 185.046875 C 191.496094 182.453125 198.625 177.636719 198.625 177.636719 " fill-opacity="1" fill-rule="nonzero"/><g clip-path="url(#c85e74e231)"><path fill="#2b50aa" d="M 171.199219 195.253906 C 115.9375 168.082031 65.796875 163.339844 40.921875 162.917969 C 31.910156 162.761719 24.570312 170.117188 24.746094 179.125 C 24.910156 187.5625 31.636719 194.40625 40.070312 194.703125 C 112.589844 197.269531 183.984375 213.246094 183.984375 213.246094 C 184.253906 205.03125 183.984375 203.066406 183.984375 203.066406 C 182.738281 199.546875 171.199219 195.253906 171.199219 195.253906 " fill-opacity="1" fill-rule="nonzero"/></g><path fill="#2b50aa" d="M 176.707031 177.636719 C 143.648438 150.085938 110.378906 138.613281 93.554688 134.226562 C 87.457031 132.640625 81.261719 136.425781 79.898438 142.574219 C 78.621094 148.332031 82.0625 154.089844 87.738281 155.679688 C 136.570312 169.355469 182.429688 191.960938 182.429688 191.960938 C 183.964844 186.421875 184.105469 185.046875 184.105469 185.046875 C 183.839844 182.453125 176.707031 177.636719 176.707031 177.636719 " fill-opacity="1" fill-rule="nonzero"/><g clip-path="url(#8d953ef194)"><path fill="#d80909" d="M 266.765625 86.226562 L 226.667969 106.785156 L 226.757812 129.855469 L 226.496094 129.894531 L 226.492188 130.421875 L 222.8125 130.394531 L 187.820312 135.183594 L 148.8125 130.421875 L 148.808594 129.855469 L 148.542969 129.855469 L 148.640625 106.257812 L 108.769531 85.078125 C 108.679688 85.03125 108.597656 84.980469 108.515625 84.929688 L 108.429688 96.582031 C 109.792969 96.917969 110.761719 97.789062 110.753906 98.808594 L 110.585938 122.433594 C 110.574219 123.730469 108.976562 124.773438 107.015625 124.757812 C 105.054688 124.746094 103.472656 123.679688 103.484375 122.382812 L 103.65625 98.757812 C 103.664062 97.742188 104.644531 96.878906 106.015625 96.566406 L 106.125 81.390625 C 105.8125 79.421875 106.632812 77.292969 108.609375 76.152344 L 128.460938 64.683594 L 147.277344 53.820312 L 160.050781 46.441406 L 178.867188 35.570312 L 185.574219 31.699219 C 186.375 31.234375 187.269531 31.007812 188.164062 31.011719 C 189.058594 31.019531 189.949219 31.261719 190.742188 31.734375 L 191.636719 32.269531 L 210.457031 43.503906 L 223.226562 51.128906 L 242.039062 62.367188 L 267.054688 77.304688 C 270.496094 79.359375 270.335938 84.398438 266.765625 86.226562 " fill-opacity="1" fill-rule="nonzero"/></g><path fill="#f4f5f7" d="M 187.820312 135.183594 L 188.222656 79.992188 L 226.738281 94.019531 L 226.472656 130.464844 L 187.820312 135.183594 " fill-opacity="1" fill-rule="nonzero"/><g fill="#f4f5f7" fill-opacity="1"><g transform="translate(123.008536, 280.862502)"><g><path d="M 33.40625 -12.9375 C 33.40625 -8.800781 31.910156 -5.5 28.921875 -3.03125 C 25.941406 -0.570312 21.707031 0.65625 16.21875 0.65625 C 11.289062 0.65625 6.882812 -0.28125 3 -2.15625 L 3 -11.375 C 5.226562 -10.414062 7.53125 -9.53125 9.90625 -8.71875 C 12.28125 -7.914062 14.644531 -7.515625 17 -7.515625 C 19.4375 -7.515625 21.164062 -7.984375 22.1875 -8.921875 C 23.21875 -9.859375 23.734375 -11.046875 23.734375 -12.484375 C 23.734375 -13.660156 23.328125 -14.660156 22.515625 -15.484375 C 21.710938 -16.316406 20.632812 -17.09375 19.28125 -17.8125 C 17.9375 -18.53125 16.390625 -19.304688 14.640625 -20.140625 C 13.554688 -20.660156 12.378906 -21.28125 11.109375 -22 C 9.847656 -22.71875 8.640625 -23.609375 7.484375 -24.671875 C 6.328125 -25.742188 5.378906 -27.039062 4.640625 -28.5625 C 3.898438 -30.09375 3.53125 -31.925781 3.53125 -34.0625 C 3.53125 -38.25 4.945312 -41.503906 7.78125 -43.828125 C 10.613281 -46.160156 14.46875 -47.328125 19.34375 -47.328125 C 21.789062 -47.328125 24.101562 -47.039062 26.28125 -46.46875 C 28.457031 -45.90625 30.765625 -45.101562 33.203125 -44.0625 L 30 -36.34375 C 27.863281 -37.21875 25.945312 -37.894531 24.25 -38.375 C 22.550781 -38.851562 20.8125 -39.09375 19.03125 -39.09375 C 17.15625 -39.09375 15.710938 -38.65625 14.703125 -37.78125 C 13.703125 -36.914062 13.203125 -35.785156 13.203125 -34.390625 C 13.203125 -32.734375 13.941406 -31.425781 15.421875 -30.46875 C 16.910156 -29.507812 19.113281 -28.332031 22.03125 -26.9375 C 24.425781 -25.800781 26.460938 -24.625 28.140625 -23.40625 C 29.816406 -22.1875 31.113281 -20.75 32.03125 -19.09375 C 32.945312 -17.4375 33.40625 -15.382812 33.40625 -12.9375 Z M 33.40625 -12.9375 "/></g></g></g><g fill="#f4f5f7" fill-opacity="1"><g transform="translate(165.628408, 280.862502)"><g><path d="M 19.484375 -46.671875 C 25.847656 -46.671875 30.539062 -45.515625 33.5625 -43.203125 C 36.59375 -40.898438 38.109375 -37.394531 38.109375 -32.6875 C 38.109375 -30.550781 37.703125 -28.6875 36.890625 -27.09375 C 36.085938 -25.507812 35.019531 -24.160156 33.6875 -23.046875 C 32.363281 -21.929688 30.941406 -21.023438 29.421875 -20.328125 L 43.140625 0 L 32.171875 0 L 21.046875 -17.90625 L 15.75 -17.90625 L 15.75 0 L 5.890625 0 L 5.890625 -46.671875 Z M 18.765625 -38.578125 L 15.75 -38.578125 L 15.75 -25.953125 L 18.953125 -25.953125 C 22.222656 -25.953125 24.566406 -26.492188 25.984375 -27.578125 C 27.398438 -28.671875 28.109375 -30.285156 28.109375 -32.421875 C 28.109375 -34.648438 27.34375 -36.234375 25.8125 -37.171875 C 24.289062 -38.109375 21.941406 -38.578125 18.765625 -38.578125 Z M 18.765625 -38.578125 "/></g></g></g><g fill="#f4f5f7" fill-opacity="1"><g transform="translate(215.373314, 280.862502)"><g><path d="M 32.75 0 L 5.890625 0 L 5.890625 -46.671875 L 32.75 -46.671875 L 32.75 -38.578125 L 15.75 -38.578125 L 15.75 -28.3125 L 31.578125 -28.3125 L 31.578125 -20.203125 L 15.75 -20.203125 L 15.75 -8.171875 L 32.75 -8.171875 Z M 32.75 0 "/></g></g></g></svg>