<svg xmlns="http://www.w3.org/2000/svg" xmlns:xlink="http://www.w3.org/1999/xlink" width="500" zoomAndPan="magnify" viewBox="0 0 375 374.999991" height="500" preserveAspectRatio="xMidYMid meet" version="1.0"><defs><g/><clipPath id="74bea2d24e"><path d="M 189 173 L 305 173 L 305 209.734375 L 189 209.734375 Z M 189 173 " clip-rule="nonzero"/></clipPath><clipPath id="554238976f"><path d="M 69.597656 173 L 185 173 L 185 209.734375 L 69.597656 209.734375 Z M 69.597656 173 " clip-rule="nonzero"/></clipPath><clipPath id="7183faefd5"><path d="M 126 77.734375 L 247 77.734375 L 247 154 L 126 154 Z M 126 77.734375 " clip-rule="nonzero"/></clipPath></defs><g clip-path="url(#74bea2d24e)"><path fill="#d80909" d="M 199.238281 196.695312 C 239.125 177.019531 275.316406 173.582031 293.273438 173.277344 C 299.78125 173.164062 305.078125 178.492188 304.953125 185.015625 C 304.832031 191.125 299.976562 196.085938 293.886719 196.300781 C 241.542969 198.15625 190.007812 209.730469 190.007812 209.730469 C 189.8125 203.777344 190.007812 202.355469 190.007812 202.355469 C 190.90625 199.808594 199.238281 196.695312 199.238281 196.695312 " fill-opacity="1" fill-rule="nonzero"/></g><path fill="#d80909" d="M 195.257812 183.9375 C 219.121094 163.980469 243.136719 155.671875 255.285156 152.496094 C 259.683594 151.347656 264.15625 154.089844 265.140625 158.542969 C 266.0625 162.710938 263.578125 166.882812 259.480469 168.035156 C 224.230469 177.941406 191.128906 194.3125 191.128906 194.3125 C 190.019531 190.300781 189.917969 189.304688 189.917969 189.304688 C 190.113281 187.425781 195.257812 183.9375 195.257812 183.9375 " fill-opacity="1" fill-rule="nonzero"/><g clip-path="url(#554238976f)"><path fill="#4782b4" d="M 175.460938 196.695312 C 135.570312 177.019531 99.378906 173.582031 81.421875 173.277344 C 74.917969 173.164062 69.621094 178.492188 69.746094 185.015625 C 69.867188 191.125 74.722656 196.085938 80.808594 196.300781 C 133.15625 198.15625 184.691406 209.730469 184.691406 209.730469 C 184.886719 203.777344 184.691406 202.355469 184.691406 202.355469 C 183.792969 199.808594 175.460938 196.695312 175.460938 196.695312 " fill-opacity="1" fill-rule="nonzero"/></g><path fill="#4782b4" d="M 179.4375 183.9375 C 155.574219 163.980469 131.558594 155.671875 119.414062 152.496094 C 115.015625 151.347656 110.542969 154.089844 109.558594 158.542969 C 108.636719 162.710938 111.121094 166.882812 115.21875 168.035156 C 150.46875 177.941406 183.566406 194.3125 183.566406 194.3125 C 184.679688 190.300781 184.777344 189.304688 184.777344 189.304688 C 184.585938 187.425781 179.4375 183.9375 179.4375 183.9375 " fill-opacity="1" fill-rule="nonzero"/><g clip-path="url(#7183faefd5)"><path fill="#d80909" d="M 244.445312 117.730469 L 215.5 132.621094 L 215.566406 149.332031 L 215.375 149.359375 L 215.375 149.738281 L 212.71875 149.722656 L 187.460938 153.1875 L 159.300781 149.738281 L 159.300781 149.332031 L 159.109375 149.332031 L 159.179688 132.238281 L 130.398438 116.898438 C 130.335938 116.867188 130.273438 116.828125 130.214844 116.792969 L 130.152344 125.230469 C 131.136719 125.472656 131.839844 126.105469 131.832031 126.84375 L 131.707031 143.957031 C 131.703125 144.894531 130.546875 145.648438 129.132812 145.640625 C 127.71875 145.628906 126.574219 144.855469 126.582031 143.917969 L 126.707031 126.808594 C 126.710938 126.070312 127.421875 125.445312 128.410156 125.21875 L 128.488281 114.226562 C 128.261719 112.804688 128.855469 111.261719 130.28125 110.433594 L 144.613281 102.128906 L 158.195312 94.257812 L 167.414062 88.914062 L 180.996094 81.042969 L 185.839844 78.238281 C 186.417969 77.902344 187.0625 77.738281 187.707031 77.742188 C 188.355469 77.746094 189 77.921875 189.570312 78.265625 L 190.214844 78.648438 L 203.800781 86.789062 L 213.015625 92.3125 L 226.597656 100.449219 L 244.652344 111.269531 C 247.136719 112.757812 247.023438 116.40625 244.445312 117.730469 " fill-opacity="1" fill-rule="nonzero"/></g><path fill="#f4f5f7" d="M 187.460938 153.1875 L 187.75 113.214844 L 215.554688 123.375 L 215.363281 149.773438 L 187.460938 153.1875 " fill-opacity="1" fill-rule="nonzero"/><g fill="#4782b4" fill-opacity="1"><g transform="translate(140.856224, 258.183117)"><g><path d="M 24.171875 -9.359375 C 24.171875 -6.367188 23.085938 -3.984375 20.921875 -2.203125 C 18.765625 -0.421875 15.703125 0.46875 11.734375 0.46875 C 8.171875 0.46875 4.984375 -0.207031 2.171875 -1.5625 L 2.171875 -8.234375 C 3.785156 -7.535156 5.453125 -6.894531 7.171875 -6.3125 C 8.890625 -5.726562 10.597656 -5.4375 12.296875 -5.4375 C 14.066406 -5.4375 15.320312 -5.773438 16.0625 -6.453125 C 16.800781 -7.128906 17.171875 -7.988281 17.171875 -9.03125 C 17.171875 -9.882812 16.878906 -10.609375 16.296875 -11.203125 C 15.710938 -11.804688 14.929688 -12.367188 13.953125 -12.890625 C 12.972656 -13.410156 11.851562 -13.96875 10.59375 -14.5625 C 9.800781 -14.945312 8.945312 -15.398438 8.03125 -15.921875 C 7.125 -16.441406 6.25 -17.085938 5.40625 -17.859375 C 4.570312 -18.628906 3.882812 -19.566406 3.34375 -20.671875 C 2.8125 -21.773438 2.546875 -23.097656 2.546875 -24.640625 C 2.546875 -27.671875 3.570312 -30.03125 5.625 -31.71875 C 7.675781 -33.40625 10.46875 -34.25 14 -34.25 C 15.769531 -34.25 17.441406 -34.039062 19.015625 -33.625 C 20.585938 -33.21875 22.257812 -32.632812 24.03125 -31.875 L 21.703125 -26.296875 C 20.160156 -26.929688 18.773438 -27.421875 17.546875 -27.765625 C 16.316406 -28.109375 15.054688 -28.28125 13.765625 -28.28125 C 12.410156 -28.28125 11.367188 -27.960938 10.640625 -27.328125 C 9.910156 -26.703125 9.546875 -25.882812 9.546875 -24.875 C 9.546875 -23.675781 10.082031 -22.726562 11.15625 -22.03125 C 12.226562 -21.34375 13.820312 -20.492188 15.9375 -19.484375 C 17.675781 -18.660156 19.148438 -17.804688 20.359375 -16.921875 C 21.578125 -16.046875 22.515625 -15.007812 23.171875 -13.8125 C 23.835938 -12.613281 24.171875 -11.128906 24.171875 -9.359375 Z M 24.171875 -9.359375 "/></g></g></g><g fill="#4782b4" fill-opacity="1"><g transform="translate(171.68732, 258.183117)"><g><path d="M 14.09375 -33.765625 C 18.695312 -33.765625 22.09375 -32.925781 24.28125 -31.25 C 26.476562 -29.582031 27.578125 -27.046875 27.578125 -23.640625 C 27.578125 -22.097656 27.285156 -20.75 26.703125 -19.59375 C 26.117188 -18.445312 25.34375 -17.472656 24.375 -16.671875 C 23.414062 -15.867188 22.382812 -15.210938 21.28125 -14.703125 L 31.21875 0 L 23.265625 0 L 15.234375 -12.953125 L 11.40625 -12.953125 L 11.40625 0 L 4.25 0 L 4.25 -33.765625 Z M 13.578125 -27.90625 L 11.40625 -27.90625 L 11.40625 -18.78125 L 13.71875 -18.78125 C 16.082031 -18.78125 17.773438 -19.171875 18.796875 -19.953125 C 19.828125 -20.742188 20.34375 -21.910156 20.34375 -23.453125 C 20.34375 -25.066406 19.789062 -26.210938 18.6875 -26.890625 C 17.582031 -27.566406 15.878906 -27.90625 13.578125 -27.90625 Z M 13.578125 -27.90625 "/></g></g></g><g fill="#4782b4" fill-opacity="1"><g transform="translate(207.672503, 258.183117)"><g><path d="M 23.703125 0 L 4.25 0 L 4.25 -33.765625 L 23.703125 -33.765625 L 23.703125 -27.90625 L 11.40625 -27.90625 L 11.40625 -20.484375 L 22.84375 -20.484375 L 22.84375 -14.609375 L 11.40625 -14.609375 L 11.40625 -5.90625 L 23.703125 -5.90625 Z M 23.703125 0 "/></g></g></g></svg>